<svg xmlns="http://www.w3.org/2000/svg" version="1.1" xmlns:xlink="http://www.w3.org/1999/xlink" xmlns:svgjs="http://svgjs.dev/svgjs" width="1000" height="1000"><style>
    #light-icon {
      display: inline;
    }
    #dark-icon {
      display: none;
    }

    @media (prefers-color-scheme: dark) {
      #light-icon {
        display: none;
      }
      #dark-icon {
        display: inline;
      }
    }
  </style><g id="light-icon"><svg xmlns="http://www.w3.org/2000/svg" version="1.1" xmlns:xlink="http://www.w3.org/1999/xlink" xmlns:svgjs="http://svgjs.dev/svgjs" width="1000" height="1000"><g clip-path="url(#SvgjsClipPath1057)"><rect width="1000" height="1000" fill="#ffffff"></rect><g transform="matrix(20.833333333333332,0,0,20.833333333333332,0,0)"><svg xmlns="http://www.w3.org/2000/svg" version="1.1" xmlns:xlink="http://www.w3.org/1999/xlink" xmlns:svgjs="http://svgjs.dev/svgjs" width="48" height="48"><svg xmlns="http://www.w3.org/2000/svg" width="48" height="48" viewBox="0 0 24 24" fill="none" stroke="#3161f2" stroke-width="2.5" stroke-linecap="round" stroke-linejoin="round" class="lucide lucide-radar"><path d="M19.07 4.93A10 10 0 0 0 6.99 3.34"></path><path d="M4 6h.01"></path><path d="M2.29 9.62A10 10 0 1 0 21.31 8.35"></path><path d="M16.24 7.76A6 6 0 1 0 8.23 16.67"></path><path d="M12 18h.01"></path><path d="M17.99 11.66A6 6 0 0 1 15.77 16.67"></path><circle cx="12" cy="12" r="2"></circle><path d="m13.41 10.59 5.66-5.66"></path></svg></svg></g></g><defs><clipPath id="SvgjsClipPath1057"><rect width="1000" height="1000" x="0" y="0" rx="500" ry="500"></rect></clipPath></defs></svg></g><g id="dark-icon"><svg xmlns="http://www.w3.org/2000/svg" version="1.1" xmlns:xlink="http://www.w3.org/1999/xlink" xmlns:svgjs="http://svgjs.dev/svgjs" width="1000" height="1000"><g clip-path="url(#SvgjsClipPath1058)"><rect width="1000" height="1000" fill="#ffffff"></rect><g transform="matrix(20.833333333333332,0,0,20.833333333333332,0,0)"><svg xmlns="http://www.w3.org/2000/svg" version="1.1" xmlns:xlink="http://www.w3.org/1999/xlink" xmlns:svgjs="http://svgjs.dev/svgjs" width="48" height="48"><svg xmlns="http://www.w3.org/2000/svg" width="48" height="48" viewBox="0 0 24 24" fill="none" stroke="#3161f2" stroke-width="2.5" stroke-linecap="round" stroke-linejoin="round" class="lucide lucide-radar"><path d="M19.07 4.93A10 10 0 0 0 6.99 3.34"></path><path d="M4 6h.01"></path><path d="M2.29 9.62A10 10 0 1 0 21.31 8.35"></path><path d="M16.24 7.76A6 6 0 1 0 8.23 16.67"></path><path d="M12 18h.01"></path><path d="M17.99 11.66A6 6 0 0 1 15.77 16.67"></path><circle cx="12" cy="12" r="2"></circle><path d="m13.41 10.59 5.66-5.66"></path></svg></svg></g></g><defs><clipPath id="SvgjsClipPath1058"><rect width="1000" height="1000" x="0" y="0" rx="500" ry="500"></rect></clipPath></defs></svg></g></svg>